<svg xmlns="http://www.w3.org/2000/svg" width="720" height="310" viewBox="0 0 720 310" role="img" aria-label="P23.13 · production toolbar symbols"><title>P23.13 · production toolbar symbols</title><desc>Five retained Lucide icons use original 24-unit viewBoxes. Six integrated drafting marks use settled 20-unit paths. All displayed at 20 CSS px for comparison; production toolbar sizing remains unchanged.</desc>
<!--
/**
 * @license lucide-svelte v1.0.1 - ISC
 *
 * ISC License
 * 
 * Copyright (c) 2026 Lucide Icons and Contributors
 * 
 * Permission to use, copy, modify, and/or distribute this software for any
 * purpose with or without fee is hereby granted, provided that the above
 * copyright notice and this permission notice appear in all copies.
 * 
 * THE SOFTWARE IS PROVIDED "AS IS" AND THE AUTHOR DISCLAIMS ALL WARRANTIES
 * WITH REGARD TO THIS SOFTWARE INCLUDING ALL IMPLIED WARRANTIES OF
 * MERCHANTABILITY AND FITNESS. IN NO EVENT SHALL THE AUTHOR BE LIABLE FOR
 * ANY SPECIAL, DIRECT, INDIRECT, OR CONSEQUENTIAL DAMAGES OR ANY DAMAGES
 * WHATSOEVER RESULTING FROM LOSS OF USE, DATA OR PROFITS, WHETHER IN AN
 * ACTION OF CONTRACT, NEGLIGENCE OR OTHER TORTIOUS ACTION, ARISING OUT OF
 * OR IN CONNECTION WITH THE USE OR PERFORMANCE OF THIS SOFTWARE.
 * 
 * —-
 * 
 * The following Lucide icons are derived from the Feather project:
 * 
 * airplay, alert-circle, alert-octagon, alert-triangle, aperture, arrow-down-circle, arrow-down-left, arrow-down-right, arrow-down, arrow-left-circle, arrow-left, arrow-right-circle, arrow-right, arrow-up-circle, arrow-up-left, arrow-up-right, arrow-up, at-sign, calendar, cast, check, chevron-down, chevron-left, chevron-right, chevron-up, chevrons-down, chevrons-left, chevrons-right, chevrons-up, circle, clipboard, clock, code, columns, command, compass, corner-down-left, corner-down-right, corner-left-down, corner-left-up, corner-right-down, corner-right-up, corner-up-left, corner-up-right, crosshair, database, divide-circle, divide-square, dollar-sign, download, external-link, feather, frown, hash, headphones, help-circle, info, italic, key, layout, life-buoy, link-2, link, loader, lock, log-in, log-out, maximize, meh, minimize, minimize-2, minus-circle, minus-square, minus, monitor, moon, more-horizontal, more-vertical, move, music, navigation-2, navigation, octagon, pause-circle, percent, plus-circle, plus-square, plus, power, radio, rss, search, server, share, shopping-bag, sidebar, smartphone, smile, square, table-2, tablet, target, terminal, trash-2, trash, triangle, tv, type, upload, x-circle, x-octagon, x-square, x, zoom-in, zoom-out
 * 
 * The MIT License (MIT) (for the icons listed above)
 * 
 * Copyright (c) 2013-present Cole Bemis
 * 
 * Permission is hereby granted, free of charge, to any person obtaining a copy
 * of this software and associated documentation files (the "Software"), to deal
 * in the Software without restriction, including without limitation the rights
 * to use, copy, modify, merge, publish, distribute, sublicense, and/or sell
 * copies of the Software, and to permit persons to whom the Software is
 * furnished to do so, subject to the following conditions:
 * 
 * The above copyright notice and this permission notice shall be included in all
 * copies or substantial portions of the Software.
 * 
 * THE SOFTWARE IS PROVIDED "AS IS", WITHOUT WARRANTY OF ANY KIND, EXPRESS OR
 * IMPLIED, INCLUDING BUT NOT LIMITED TO THE WARRANTIES OF MERCHANTABILITY,
 * FITNESS FOR A PARTICULAR PURPOSE AND NONINFRINGEMENT. IN NO EVENT SHALL THE
 * AUTHORS OR COPYRIGHT HOLDERS BE LIABLE FOR ANY CLAIM, DAMAGES OR OTHER
 * LIABILITY, WHETHER IN AN ACTION OF CONTRACT, TORT OR OTHERWISE, ARISING FROM,
 * OUT OF OR IN CONNECTION WITH THE SOFTWARE OR THE USE OR OTHER DEALINGS IN THE
 * SOFTWARE.
 * 
 */

-->
<defs>
<symbol id="select" viewBox="0 0 20 20"><path d="M5 3L17 12H11L8 18Z" fill="none" stroke="currentColor" stroke-width="1.5" stroke-linejoin="miter" stroke-linecap="butt"/></symbol>
<symbol id="wall" viewBox="0 0 24 24"><g fill="none" stroke="currentColor" stroke-width="2" stroke-linejoin="round" stroke-linecap="round"><rect width="18" height="18" x="3" y="3" rx="2"/><path d="M12 9v6"/><path d="M16 15v6"/><path d="M16 3v6"/><path d="M3 15h18"/><path d="M3 9h18"/><path d="M8 15v6"/><path d="M8 3v6"/></g></symbol>
<symbol id="rect-room" viewBox="0 0 24 24"><g fill="none" stroke="currentColor" stroke-width="2" stroke-linejoin="round" stroke-linecap="round"><rect width="18" height="18" x="3" y="3" rx="2"/></g></symbol>
<symbol id="poly-room" viewBox="0 0 24 24"><g fill="none" stroke="currentColor" stroke-width="2" stroke-linejoin="round" stroke-linecap="round"><path d="M10.83 2.38a2 2 0 0 1 2.34 0l8 5.74a2 2 0 0 1 .73 2.25l-3.04 9.26a2 2 0 0 1-1.9 1.37H7.04a2 2 0 0 1-1.9-1.37L2.1 10.37a2 2 0 0 1 .73-2.25z"/></g></symbol>
<symbol id="door" viewBox="0 0 24 24"><g fill="none" stroke="currentColor" stroke-width="2" stroke-linejoin="round" stroke-linecap="round"><path d="M11 20H2"/><path d="M11 4.562v16.157a1 1 0 0 0 1.242.97L19 20V5.562a2 2 0 0 0-1.515-1.94l-4-1A2 2 0 0 0 11 4.561z"/><path d="M11 4H8a2 2 0 0 0-2 2v14"/><path d="M14 12h.01"/><path d="M22 20h-3"/></g></symbol>
<symbol id="window" viewBox="0 0 24 24"><g fill="none" stroke="currentColor" stroke-width="2" stroke-linejoin="round" stroke-linecap="round"><path d="M12 3v18"/><path d="M3 12h18"/><rect x="3" y="3" width="18" height="18" rx="2"/></g></symbol>
<symbol id="column-preset" viewBox="0 0 20 20"><path d="M10 3A7 7 0 1 0 10 17A7 7 0 1 0 10 3Z" fill="none" stroke="currentColor" stroke-width="1.5" stroke-linejoin="miter" stroke-linecap="butt"/></symbol>
<symbol id="platform-preset" viewBox="0 0 20 20"><path d="M2 6H18V14H2ZM5 10H15" fill="none" stroke="currentColor" stroke-width="1.5" stroke-linejoin="miter" stroke-linecap="butt"/></symbol>
<symbol id="plinth-preset" viewBox="0 0 20 20"><path d="M4 4H16V16H4ZM7 7H13V13H7Z" fill="none" stroke="currentColor" stroke-width="1.5" stroke-linejoin="miter" stroke-linecap="butt"/></symbol>
<symbol id="snap" viewBox="0 0 20 20"><path d="M4 4V11A6 6 0 0 0 16 11V4M4 7H7M13 7H16" fill="none" stroke="currentColor" stroke-width="1.5" stroke-linejoin="miter" stroke-linecap="butt"/></symbol>
<symbol id="grid" viewBox="0 0 20 20"><path d="M3 3H17V17H3ZM3 8H17M3 13H17M8 3V17M13 3V17" fill="none" stroke="currentColor" stroke-width="1.5" stroke-linejoin="miter" stroke-linecap="butt"/></symbol>
</defs><rect width="720" height="310" fill="#f5f7f8"/><g color="#343c43" fill="#343c43" font-family="system-ui,sans-serif">
<text x="20" y="28" font-size="15">P23.13 · production toolbar symbols</text>
<text x="20" y="48" font-size="10">Eleven landed toolbar marks. Plan Door drawing cue remains separate.</text>
<use href="#select" x="20" y="72" width="20" height="20"/><text x="20" y="112" font-size="11">Select</text>
<use href="#wall" x="160" y="72" width="20" height="20"/><text x="160" y="112" font-size="11">Wall</text>
<use href="#rect-room" x="300" y="72" width="20" height="20"/><text x="300" y="112" font-size="11">Rect Room</text>
<use href="#poly-room" x="440" y="72" width="20" height="20"/><text x="440" y="112" font-size="11">Poly Room</text>
<use href="#door" x="580" y="72" width="20" height="20"/><text x="580" y="112" font-size="11">Door</text>
<use href="#window" x="20" y="152" width="20" height="20"/><text x="20" y="192" font-size="11">Window</text>
<use href="#column-preset" x="160" y="152" width="20" height="20"/><text x="160" y="192" font-size="11">Column</text>
<use href="#platform-preset" x="300" y="152" width="20" height="20"/><text x="300" y="192" font-size="11">Platform</text>
<use href="#plinth-preset" x="440" y="152" width="20" height="20"/><text x="440" y="192" font-size="11">Plinth</text>
<use href="#snap" x="580" y="152" width="20" height="20"/><text x="580" y="192" font-size="11">Snap</text>
<use href="#grid" x="20" y="232" width="20" height="20"/><text x="20" y="272" font-size="11">Grid</text>
</g></svg>
